<mxfile host="app.diagrams.net" agent="Mozilla/5.0 (Windows NT 10.0; Win64; x64) AppleWebKit/537.36 (KHTML, like Gecko) Chrome/135.0.0.0 Safari/537.36 OPR/120.0.0.0" version="28.1.2">
  <diagram name="Page-1" id="nrMDSHrh1mtwg5gxZ5Ba">
    <mxGraphModel dx="1477" dy="488" grid="1" gridSize="10" guides="1" tooltips="1" connect="1" arrows="1" fold="1" page="1" pageScale="1" pageWidth="827" pageHeight="1169" math="0" shadow="0">
      <root>
        <mxCell id="0" />
        <mxCell id="1" parent="0" />
        <mxCell id="iC1rTaQaeNt96tmryydn-29" value="Orchestrator&lt;br&gt;(RxJS + NodeJS)" style="rounded=1;whiteSpace=wrap;html=1;fontSize=12;fontColor=#000000;strokeColor=#000000;fillColor=#FFFFFF;" vertex="1" parent="1">
          <mxGeometry x="-190" y="1140" width="140" height="70" as="geometry" />
        </mxCell>
        <mxCell id="iC1rTaQaeNt96tmryydn-30" value="App&lt;br&gt;(AppMessage)" style="rounded=1;whiteSpace=wrap;html=1;fontSize=11;fontColor=#000000;strokeColor=#0000FF;fillColor=#EBF5FB;" vertex="1" parent="1">
          <mxGeometry x="-550" y="1150" width="120" height="50" as="geometry" />
        </mxCell>
        <mxCell id="iC1rTaQaeNt96tmryydn-31" value="Sys&lt;br&gt;(SysMessage)" style="rounded=1;whiteSpace=wrap;html=1;fontSize=11;fontColor=#000000;strokeColor=#00A200;fillColor=#E6FFEF;" vertex="1" parent="1">
          <mxGeometry x="-180" y="960" width="120" height="50" as="geometry" />
        </mxCell>
        <mxCell id="iC1rTaQaeNt96tmryydn-32" value="UI&lt;br&gt;(UIMessage)" style="rounded=1;whiteSpace=wrap;html=1;fontSize=11;fontColor=#000000;strokeColor=#A2A2A2;fillColor=#F3F3F3;" vertex="1" parent="1">
          <mxGeometry x="160" y="1150" width="120" height="50" as="geometry" />
        </mxCell>
        <mxCell id="iC1rTaQaeNt96tmryydn-33" value="Launcher&lt;br&gt;(start Runtimes)" style="rounded=1;whiteSpace=wrap;html=1;fontSize=12;fontColor=#000000;strokeColor=#000000;fillColor=#FFFAE3;" vertex="1" parent="1">
          <mxGeometry x="-180" y="470" width="140" height="70" as="geometry" />
        </mxCell>
        <mxCell id="iC1rTaQaeNt96tmryydn-34" value="Runtime1&lt;br&gt;(Client)" style="rounded=1;whiteSpace=wrap;html=1;fontSize=12;fontColor=#000000;strokeColor=#000000;fillColor=#E5F5E0;" vertex="1" parent="1">
          <mxGeometry x="-290" y="700" width="140" height="70" as="geometry" />
        </mxCell>
        <mxCell id="iC1rTaQaeNt96tmryydn-35" value="Runtime2&lt;br&gt;(Client)" style="rounded=1;whiteSpace=wrap;html=1;fontSize=12;fontColor=#000000;strokeColor=#000000;fillColor=#E5F5E0;" vertex="1" parent="1">
          <mxGeometry x="-90" y="700" width="140" height="70" as="geometry" />
        </mxCell>
        <mxCell id="iC1rTaQaeNt96tmryydn-36" style="edgeStyle=orthogonalEdgeStyle;elbow=horizontal;strokeColor=#000000;dashed=1;" edge="1" parent="1" source="iC1rTaQaeNt96tmryydn-29" target="iC1rTaQaeNt96tmryydn-30">
          <mxGeometry relative="1" as="geometry">
            <mxPoint x="-350" y="1210" as="targetPoint" />
          </mxGeometry>
        </mxCell>
        <mxCell id="iC1rTaQaeNt96tmryydn-37" style="edgeStyle=orthogonalEdgeStyle;elbow=horizontal;strokeColor=#000000;dashed=1;" edge="1" parent="1" source="iC1rTaQaeNt96tmryydn-29" target="iC1rTaQaeNt96tmryydn-31">
          <mxGeometry relative="1" as="geometry">
            <mxPoint x="-190" y="1210" as="targetPoint" />
          </mxGeometry>
        </mxCell>
        <mxCell id="iC1rTaQaeNt96tmryydn-38" style="edgeStyle=orthogonalEdgeStyle;elbow=horizontal;strokeColor=#000000;dashed=1;" edge="1" parent="1" source="iC1rTaQaeNt96tmryydn-29" target="iC1rTaQaeNt96tmryydn-32">
          <mxGeometry relative="1" as="geometry">
            <mxPoint x="-30" y="1210" as="targetPoint" />
          </mxGeometry>
        </mxCell>
        <mxCell id="iC1rTaQaeNt96tmryydn-39" style="edgeStyle=orthogonalEdgeStyle;elbow=horizontal;strokeColor=#000000;" edge="1" parent="1" source="iC1rTaQaeNt96tmryydn-33" target="iC1rTaQaeNt96tmryydn-34">
          <mxGeometry relative="1" as="geometry">
            <mxPoint x="-140" y="540" as="targetPoint" />
          </mxGeometry>
        </mxCell>
        <mxCell id="iC1rTaQaeNt96tmryydn-40" style="edgeStyle=orthogonalEdgeStyle;elbow=horizontal;strokeColor=#000000;" edge="1" parent="1" source="iC1rTaQaeNt96tmryydn-33" target="iC1rTaQaeNt96tmryydn-35">
          <mxGeometry relative="1" as="geometry">
            <mxPoint x="-40" y="540" as="targetPoint" />
          </mxGeometry>
        </mxCell>
        <mxCell id="iC1rTaQaeNt96tmryydn-42" style="edgeStyle=orthogonalEdgeStyle;rounded=0;orthogonalLoop=1;jettySize=auto;html=1;exitX=0.5;exitY=1;exitDx=0;exitDy=0;exitPerimeter=0;entryX=0.5;entryY=0;entryDx=0;entryDy=0;" edge="1" parent="1" source="iC1rTaQaeNt96tmryydn-41" target="iC1rTaQaeNt96tmryydn-31">
          <mxGeometry relative="1" as="geometry" />
        </mxCell>
        <mxCell id="iC1rTaQaeNt96tmryydn-43" style="edgeStyle=orthogonalEdgeStyle;rounded=0;orthogonalLoop=1;jettySize=auto;html=1;exitX=0.5;exitY=0;exitDx=0;exitDy=0;exitPerimeter=0;entryX=0.5;entryY=1;entryDx=0;entryDy=0;" edge="1" parent="1" source="iC1rTaQaeNt96tmryydn-41" target="iC1rTaQaeNt96tmryydn-34">
          <mxGeometry relative="1" as="geometry" />
        </mxCell>
        <mxCell id="iC1rTaQaeNt96tmryydn-41" value="" style="shape=mxgraph.signs.tech.mail;html=1;pointerEvents=1;fillColor=#000000;strokeColor=none;verticalLabelPosition=bottom;verticalAlign=top;align=center;sketch=0;" vertex="1" parent="1">
          <mxGeometry x="-251" y="860" width="62" height="31" as="geometry" />
        </mxCell>
        <mxCell id="iC1rTaQaeNt96tmryydn-44" value="&lt;h1 style=&quot;margin-top: 0px;&quot;&gt;&lt;font style=&quot;font-size: 9px;&quot;&gt;rt_init&lt;/font&gt;&lt;/h1&gt;&lt;p&gt;&lt;font style=&quot;font-size: 8px;&quot;&gt;Payload: RT_ID&lt;/font&gt;&lt;/p&gt;" style="text;html=1;whiteSpace=wrap;overflow=hidden;rounded=0;" vertex="1" parent="1">
          <mxGeometry x="-330" y="835.5" width="79" height="80" as="geometry" />
        </mxCell>
      </root>
    </mxGraphModel>
  </diagram>
</mxfile>
